<svg width="34" height="34" viewBox="0 0 34 34" fill="none" xmlns="http://www.w3.org/2000/svg">
<rect width="34" height="34" rx="6" fill="#E6EAEB"/>
<path fill-rule="evenodd" clip-rule="evenodd" d="M7.21438 26.7854C7.45846 27.0295 7.85418 27.0295 8.09826 26.7854L13.2185 21.6652L13.2185 25.1249C13.2185 25.4701 13.4983 25.7499 13.8435 25.7499C14.1887 25.7499 14.4685 25.4701 14.4685 25.1249L14.4685 20.1563C14.4685 19.8111 14.1887 19.5313 13.8435 19.5313L8.87496 19.5313C8.52978 19.5313 8.24996 19.8111 8.24996 20.1563C8.24996 20.5015 8.52978 20.7813 8.87496 20.7813L12.3346 20.7813L7.21438 25.9016C6.9703 26.1456 6.9703 26.5414 7.21438 26.7854Z" fill="#354344"/>
<path fill-rule="evenodd" clip-rule="evenodd" d="M26.7856 7.21455C26.5415 6.97047 26.1458 6.97047 25.9017 7.21455L20.7815 12.3348L20.7815 8.87508C20.7815 8.5299 20.5017 8.25008 20.1565 8.25008C19.8113 8.25008 19.5315 8.5299 19.5315 8.87508L19.5315 13.8437C19.5315 14.1889 19.8113 14.4687 20.1565 14.4687L25.125 14.4687C25.4702 14.4687 25.75 14.1889 25.75 13.8437C25.75 13.4985 25.4702 13.2187 25.125 13.2187L21.6654 13.2187L26.7856 8.09844C27.0297 7.85436 27.0297 7.45863 26.7856 7.21455Z" fill="#354344"/>
</svg>
