<svg width="20" height="20" viewBox="0 0 20 20" fill="none" xmlns="http://www.w3.org/2000/svg">
<path fill-rule="evenodd" clip-rule="evenodd" d="M0.214379 19.7854C0.458457 20.0295 0.854185 20.0295 1.09826 19.7854L6.2185 14.6652L6.2185 18.1249C6.2185 18.4701 6.49833 18.7499 6.8435 18.7499C7.18868 18.7499 7.46851 18.4701 7.46851 18.1249L7.46851 13.1563C7.46851 12.8111 7.18868 12.5313 6.84351 12.5313L1.87496 12.5313C1.52978 12.5313 1.24996 12.8111 1.24996 13.1563C1.24996 13.5015 1.52978 13.7813 1.87496 13.7813L5.33462 13.7813L0.214379 18.9016C-0.0296984 19.1456 -0.0296984 19.5414 0.214379 19.7854Z" fill="#354344"/>
<path fill-rule="evenodd" clip-rule="evenodd" d="M19.7856 0.214552C19.5415 -0.0295253 19.1458 -0.0295253 18.9017 0.214552L13.7815 5.33479L13.7815 1.87508C13.7815 1.5299 13.5017 1.25008 13.1565 1.25008C12.8113 1.25008 12.5315 1.5299 12.5315 1.87508L12.5315 6.84368C12.5315 7.18886 12.8113 7.46868 13.1565 7.46868L18.125 7.46868C18.4702 7.46868 18.75 7.18885 18.75 6.84368C18.75 6.4985 18.4702 6.21867 18.125 6.21867L14.6654 6.21868L19.7856 1.09844C20.0297 0.854358 20.0297 0.45863 19.7856 0.214552Z" fill="#354344"/>
</svg>
