<svg width="88" height="25" viewBox="0 0 88 25" fill="none" xmlns="http://www.w3.org/2000/svg">
<g clip-path="url(#clip0_6969_19)">
<path d="M59.8906 16.2973C60.1171 16.2624 60.3572 16.3391 60.5059 16.5168C60.6818 16.712 60.7122 17.0187 60.5837 17.2453C60.4417 17.4997 60.1205 17.6182 59.8433 17.5555C59.5525 17.5032 59.3125 17.2348 59.326 16.9351C59.3158 16.6179 59.5829 16.3356 59.8906 16.3008" fill="#808183"/>
<path d="M51.3503 16.4368H52.9698C53.4736 17.7194 53.9841 19.0019 54.4879 20.288C54.6163 20.6087 54.738 20.9328 54.8733 21.2534C55.5224 19.6502 56.1817 18.0505 56.8241 16.4437C57.3448 16.4368 57.8654 16.4437 58.3827 16.4403C58.3827 18.6116 58.3827 20.7829 58.3827 22.9508C58.0074 22.9508 57.6322 22.9543 57.2569 22.9508C57.2603 21.351 57.2569 19.7478 57.2569 18.1446C57.2569 18.0714 57.2569 17.9982 57.2501 17.9285C57.2298 17.9598 57.2095 17.9947 57.1926 18.033C56.5502 19.6746 55.8943 21.3092 55.2519 22.9508C54.9849 22.9612 54.7178 22.9508 54.4507 22.9577C53.7846 21.3162 53.1321 19.6746 52.4694 18.033C52.4525 17.9982 52.4356 17.9668 52.4153 17.9354C52.4018 18.636 52.4153 19.34 52.4085 20.0406C52.4085 21.013 52.4085 21.9854 52.4085 22.9577C52.0535 22.9577 51.7019 22.9577 51.3469 22.9577C51.3469 20.7864 51.3469 18.6151 51.3469 16.4437" fill="#808183"/>
<path d="M62.9572 18.2769C63.4948 18.1235 64.0763 18.1305 64.6105 18.2838C64.7221 18.3152 64.8303 18.357 64.9283 18.4163C64.9216 18.7718 64.9283 19.1308 64.9249 19.4863C64.5632 19.2109 64.1101 19.0367 63.6537 19.0959C63.2919 19.1273 62.9471 19.3155 62.7307 19.6083C62.4501 19.9742 62.3892 20.4587 62.4332 20.9013C62.4703 21.2498 62.6123 21.5984 62.8862 21.8284C63.1668 22.0793 63.559 22.1665 63.9275 22.1386C64.2893 22.0968 64.6342 21.9434 64.9283 21.7273C64.9283 22.0654 64.9283 22.4 64.9283 22.738C64.4719 23.0099 63.9275 23.0796 63.4069 23.0552C62.8727 23.0273 62.3419 22.8252 61.9531 22.4488C61.5338 22.0445 61.3073 21.4659 61.2802 20.8839C61.2532 20.2844 61.3749 19.6536 61.7198 19.1517C62.0105 18.723 62.4636 18.4198 62.9572 18.2769Z" fill="#808183"/>
<path d="M75.1253 18.2072C75.6392 18.1166 76.1801 18.1828 76.667 18.3676V19.3922C76.3255 19.1587 75.9096 19.0298 75.4972 19.0472C75.2875 19.0542 75.061 19.1448 74.963 19.3434C74.8886 19.5386 74.9393 19.7965 75.1253 19.915C75.4431 20.1276 75.8184 20.2182 76.1463 20.4065C76.4033 20.5528 76.6535 20.741 76.7853 21.0164C77.0321 21.5287 76.9273 22.2049 76.4946 22.5882C76.0821 22.9751 75.4904 23.0797 74.9427 23.0588C74.5573 23.0344 74.1684 22.9577 73.8101 22.7974C73.8101 22.4349 73.8101 22.0759 73.8101 21.7169C74.111 21.9365 74.4558 22.0899 74.821 22.1561C75.0745 22.1979 75.3518 22.1979 75.5885 22.0864C75.815 21.9714 75.8556 21.6507 75.7203 21.452C75.5952 21.2987 75.4093 21.215 75.2335 21.1314C74.9055 20.985 74.5606 20.8595 74.2733 20.64C74.0704 20.4796 73.9182 20.2566 73.8574 20.0056C73.7695 19.6362 73.7965 19.2145 74.0129 18.8938C74.2597 18.5139 74.6857 18.2874 75.1219 18.2107" fill="#808183"/>
<path d="M67.4199 18.3535C67.7276 18.1688 68.1198 18.1514 68.4545 18.2664C68.4545 18.6393 68.4545 19.0122 68.4545 19.3851C68.2347 19.2423 67.9609 19.1795 67.7005 19.2074C67.3827 19.2457 67.1325 19.4862 67.0041 19.765C66.8621 20.0613 66.835 20.3959 66.8452 20.7165V22.9506H65.7463C65.7463 21.3962 65.7463 19.8417 65.7463 18.2838C66.1115 18.2803 66.48 18.2838 66.8485 18.2838C66.8485 18.5522 66.8485 18.8205 66.8485 19.0854C66.9669 18.7926 67.1461 18.5138 67.4233 18.3535" fill="#808183"/>
<path d="M59.4272 18.2839C59.7958 18.2839 60.1677 18.2769 60.5362 18.2839C60.5328 19.8383 60.5362 21.3927 60.5362 22.9507H59.4306C59.4306 21.3927 59.4306 19.8383 59.4306 18.2839" fill="#808183"/>
<path d="M73.0729 19.3712C72.8802 18.939 72.532 18.58 72.0992 18.3849C71.6022 18.1583 71.0409 18.1304 70.5034 18.1967C69.9421 18.2664 69.3944 18.5312 69.0394 18.9808C68.7148 19.3817 68.5559 19.8975 68.5255 20.4063C68.4815 21.0093 68.583 21.6471 68.9346 22.149C69.2355 22.5811 69.7088 22.8809 70.2228 22.9889C70.6521 23.0795 71.0984 23.0795 71.5278 22.9889C72.0282 22.8879 72.4981 22.609 72.8092 22.1978C73.1135 21.8109 73.2656 21.3264 73.2994 20.8385C73.3332 20.3401 73.2825 19.8243 73.0763 19.3677M71.9978 21.5146C71.8896 21.7551 71.6969 21.9573 71.45 22.0549C71.1627 22.1664 70.8381 22.1699 70.5406 22.0932C70.2397 22.013 69.9827 21.7935 69.8441 21.5181C69.6649 21.1592 69.6378 20.7444 69.675 20.3471C69.7088 19.9881 69.8339 19.6221 70.1044 19.3747C70.3005 19.19 70.571 19.0993 70.8381 19.0854C71.1728 19.0645 71.5312 19.1586 71.7712 19.4026C72.0282 19.657 72.1262 20.0229 72.1567 20.375C72.177 20.7583 72.1601 21.1591 72.0011 21.5146" fill="#808183"/>
<path d="M81.9953 19.5071C81.8229 19.0436 81.4814 18.6427 81.0385 18.4197C80.5313 18.1653 79.9397 18.1269 79.3852 18.1931C78.9355 18.2489 78.496 18.4232 78.1545 18.7229C77.7353 19.0819 77.4918 19.6151 77.4174 20.1554C77.3498 20.6991 77.3701 21.2672 77.5933 21.776C77.8029 22.2744 78.2221 22.6787 78.7259 22.8774C79.2229 23.0726 79.774 23.0969 80.2947 23.0098C80.8289 22.9227 81.336 22.6404 81.6639 22.2082C82.019 21.7621 82.1677 21.18 82.1677 20.6189C82.1745 20.2425 82.1271 19.8591 81.9953 19.5036M80.9911 21.0894C80.9472 21.3334 80.8627 21.5808 80.7038 21.776C80.5415 21.9712 80.3014 22.0897 80.0512 22.1246C79.7841 22.1664 79.5035 22.1455 79.2533 22.0374C78.9862 21.9259 78.7766 21.6924 78.665 21.4205C78.5332 21.0999 78.5061 20.7444 78.5332 20.4028C78.5568 20.0717 78.6515 19.7302 78.8713 19.4722C79.0707 19.2318 79.375 19.0993 79.6827 19.0819C79.9971 19.061 80.3318 19.1342 80.5753 19.3468C80.7984 19.5315 80.9235 19.8103 80.9776 20.0891C81.0418 20.4168 81.0418 20.7583 80.9878 21.0859" fill="#808183"/>
<path d="M87.5841 22.1386C87.4353 22.156 87.2866 22.1351 87.1547 22.0619C87.1006 22.034 87.0601 21.9922 87.0262 21.9434C86.9924 21.8981 86.9688 21.8458 86.9519 21.7866C86.9316 21.7308 86.9214 21.6716 86.9147 21.6123C86.9012 21.4833 86.8978 21.3544 86.8944 21.2254C86.8944 21.0651 86.8978 20.9048 86.8944 20.7445C86.8944 20.2217 86.8944 19.7024 86.8944 19.1796C87.077 19.1796 87.2629 19.1796 87.4455 19.1796C87.6314 19.1796 87.814 19.1796 87.9966 19.1865V18.2804C87.6314 18.2804 87.2629 18.2804 86.8944 18.2804C86.8876 17.8133 86.8944 17.3463 86.891 16.8828C86.5225 16.9943 86.1573 17.1128 85.7888 17.2174C85.7787 17.5694 85.7888 17.9249 85.782 18.2769C85.2377 18.2769 84.6968 18.2769 84.1524 18.2769C84.1592 17.9981 84.1321 17.7192 84.1727 17.4404C84.2065 17.2208 84.3316 17.0013 84.5446 16.9176C84.8117 16.8061 85.1092 16.8828 85.3662 16.9943C85.3662 16.6771 85.3662 16.3565 85.3662 16.0393C84.832 15.8929 84.2167 15.9208 83.7433 16.231C83.439 16.4262 83.2159 16.7399 83.1145 17.0919C82.9961 17.4787 83.057 17.8865 83.0367 18.2839C82.7797 18.2839 82.5228 18.2804 82.2625 18.2839C82.2625 18.5801 82.2625 18.8798 82.2625 19.1796C82.5194 19.1865 82.7797 19.1796 83.0401 19.1831C83.0367 20.4378 83.0401 21.6925 83.0401 22.9472H84.1558C84.1558 21.6925 84.1558 20.4378 84.1558 19.1796H85.7854C85.7854 19.9812 85.7854 20.7793 85.7854 21.5809C85.7888 21.9539 85.853 22.3512 86.0999 22.6474C86.3129 22.9088 86.651 23.0273 86.9789 23.0517C87.3204 23.0761 87.6788 23.0343 87.9966 22.8949V21.9783C87.8749 22.0619 87.7295 22.1177 87.5807 22.1351" fill="#808183"/>
<path d="M36.6125 14.1294H41.7719C41.7719 15.8546 41.7719 17.5763 41.7719 19.2981H36.6159V14.1294H36.6125Z" fill="#E9562E"/>
<path d="M42.2959 14.1294H47.4553V19.2981C45.7377 19.2981 44.0168 19.2981 42.2959 19.2981V14.1294Z" fill="#64B339"/>
<path d="M41.7719 19.8279H36.6125V24.9966H41.7719V19.8279Z" fill="#0B9DDA"/>
<path d="M47.4519 19.8279H42.2959V24.9966H47.4519V19.8279Z" fill="#FAB615"/>
<path d="M4.36494 14.6278C4.36494 14.7497 4.2838 14.8439 4.17899 14.8439H3.81047C3.70566 14.8439 3.62451 14.7497 3.62451 14.6278V13.854C3.62451 13.746 3.70566 13.6379 3.81047 13.6379H4.17899C4.2838 13.6379 4.36494 13.746 4.36494 13.854V14.6278Z" fill="#E9D33F"/>
<path d="M22.1455 14.6278C22.1455 14.7497 22.0643 14.8439 21.9595 14.8439H21.591C21.4862 14.8439 21.405 14.7497 21.405 14.6278V13.854C21.405 13.746 21.4862 13.6379 21.591 13.6379H21.9595C22.0643 13.6379 22.1455 13.746 22.1455 13.854V14.6278Z" fill="#E25046"/>
<path d="M1.33887 20.8629H0.740433V24.1286H1.33887C1.66344 24.1286 1.92716 23.8149 1.92716 23.435V21.5564C1.92716 21.1765 1.66344 20.8629 1.33887 20.8629ZM1.92716 17.5344C1.92716 17.1406 1.66344 16.8269 1.33887 16.8269H0.740433V19.9915H1.33887C1.66344 19.9915 1.92716 19.6779 1.92716 19.284V17.5344ZM2.66759 19.284C2.66759 19.7336 2.5053 20.1414 2.25173 20.4272C2.5053 20.713 2.66759 21.1068 2.66759 21.5564V23.435C2.66759 24.2924 2.06916 24.9964 1.33887 24.9964H0.368526C0.17243 24.9964 0 24.8047 0 24.5608V16.3912C0 16.1612 0.17243 15.9556 0.368526 15.9556H1.33887C2.06578 15.9556 2.66759 16.6631 2.66759 17.5309V19.2805V19.284Z" fill="#3C3D3D"/>
<path d="M4.36494 24.7805C4.36494 24.9025 4.2838 24.9966 4.17899 24.9966H3.81047C3.70566 24.9966 3.62451 24.9025 3.62451 24.7805V16.1753C3.62451 16.0673 3.70566 15.9592 3.81047 15.9592H4.17899C4.2838 15.9592 4.36494 16.0673 4.36494 16.1753V24.7805Z" fill="#3C3D3D"/>
<path d="M11.9382 20.863H11.3364V24.1288H11.9382C12.2628 24.1288 12.5265 23.8151 12.5265 23.4352V21.5566C12.5265 21.1767 12.2628 20.863 11.9382 20.863ZM12.5265 17.5346C12.5265 17.1407 12.2628 16.8271 11.9382 16.8271H11.3364V19.9917H11.9382C12.2628 19.9917 12.5265 19.678 12.5265 19.2842V17.5346ZM13.267 19.2842C13.267 19.7338 13.1047 20.1416 12.8511 20.4274C13.1047 20.7132 13.267 21.107 13.267 21.5566V23.4352C13.267 24.2926 12.6651 25.0001 11.9382 25.0001H10.9679C10.7718 25.0001 10.5994 24.8084 10.5994 24.5644V16.3949C10.5994 16.1649 10.7718 15.9592 10.9679 15.9592H11.9382C12.6651 15.9592 13.267 16.6667 13.267 17.5346V19.2842Z" fill="#3C3D3D"/>
<path d="M16.0832 17.5344C16.0832 17.1406 15.8195 16.8269 15.4949 16.8269H14.9067V20.0194H15.4949C15.8195 20.0194 16.0832 19.7057 16.0832 19.3258V17.5344ZM16.8203 19.3258C16.8203 19.7754 16.6715 20.1693 16.4146 20.4551C16.6681 20.7409 16.8203 21.1487 16.8203 21.5948V24.7768C16.8203 24.8988 16.7391 24.9964 16.6343 24.9964H16.2658C16.161 24.9964 16.0799 24.9023 16.0799 24.7768V21.5948C16.0799 21.2009 15.8161 20.8873 15.4916 20.8873H14.9033V24.7768C14.9033 24.8988 14.812 24.9964 14.7173 24.9964H14.3488C14.244 24.9964 14.1628 24.9023 14.1628 24.7768V16.3912C14.1628 16.1612 14.3251 15.9556 14.5314 15.9556H15.4882C16.2286 15.9556 16.8169 16.6631 16.8169 17.5344V19.3258H16.8203Z" fill="#3C3D3D"/>
<path d="M22.1455 24.7805C22.1455 24.9025 22.0644 24.9966 21.9629 24.9966H21.5944C21.4896 24.9966 21.4084 24.9025 21.4084 24.7805V16.1753C21.4084 16.0673 21.4896 15.9592 21.5944 15.9592H21.9629C22.0677 15.9592 22.1455 16.0673 22.1455 16.1753V24.7805Z" fill="#3C3D3D"/>
<path d="M19.7077 20.8907H18.5176V17.5344C18.5176 17.2347 18.521 17.0046 18.5311 16.8269H19.1059C19.4406 16.8269 19.7077 17.1406 19.7077 17.5344V20.8907ZM19.1093 15.9591C19.0856 15.9591 19.0653 15.9591 19.0417 15.9625C19.0349 15.9625 19.0281 15.9591 19.0248 15.9591H17.9699C17.9699 15.9591 17.9631 15.9591 17.9597 15.9591C17.9395 15.9591 17.9192 15.966 17.9023 15.973C17.8887 15.98 17.8786 15.9904 17.8651 16.0009C17.8583 16.0078 17.8482 16.0113 17.8414 16.0218C17.8347 16.0322 17.8279 16.0427 17.8211 16.0532C17.8144 16.0671 17.8042 16.0776 17.8008 16.0915C17.7907 16.1159 17.7839 16.1438 17.7839 16.1717V24.7768C17.7839 24.8988 17.8651 24.9929 17.9699 24.9929H18.3384C18.4432 24.9929 18.5244 24.8988 18.5244 24.7768V21.7551H19.7145V24.7768C19.7145 24.8988 19.7956 24.9929 19.9004 24.9929H20.269C20.3602 24.9929 20.4549 24.8988 20.4549 24.7768V17.5309C20.4549 16.6596 19.8531 15.9556 19.116 15.9556" fill="#3C3D3D"/>
<path d="M25.5839 15.9591H25.2154C25.1106 15.9591 25.0294 16.0672 25.0294 16.1752V17.5484L23.8089 16.0218C23.7717 15.9765 23.721 15.9556 23.6669 15.9591C23.6635 15.9591 23.6602 15.9591 23.6568 15.9591H23.2882C23.1834 15.9591 23.1023 16.0672 23.1023 16.1752V24.7804C23.1023 24.9024 23.1834 24.9965 23.2882 24.9965H23.6568C23.7616 24.9965 23.8427 24.9024 23.8427 24.7804V17.3323L25.0328 18.8171V24.7804C25.0328 24.9024 25.114 24.9965 25.2188 24.9965H25.5873C25.6921 24.9965 25.7699 24.9024 25.7699 24.7804V16.1752C25.7699 16.0672 25.6887 15.9591 25.5873 15.9591" fill="#3C3D3D"/>
<path d="M7.4245 18.2003H7.79303C7.82007 18.2003 7.84374 18.1933 7.86403 18.1828C7.93165 18.1515 7.9756 18.0748 7.9756 17.9807V17.7193V16.1718C7.9756 16.1439 7.96884 16.1161 7.96207 16.0917C7.95531 16.0777 7.94855 16.0638 7.94179 16.0533C7.93503 16.0429 7.93165 16.0324 7.9215 16.022C7.91474 16.015 7.9046 16.008 7.89784 16.0011C7.88769 15.9906 7.87755 15.9801 7.86064 15.9732C7.84036 15.9627 7.82007 15.9592 7.79979 15.9592C7.79641 15.9592 7.79303 15.9592 7.78964 15.9592H6.62997C6.62997 15.9592 6.62997 15.9592 6.62659 15.9592C5.90982 15.9732 5.32153 16.6737 5.32153 17.5206V23.4352C5.32153 24.2821 5.90982 24.9826 6.62659 24.9966C6.62659 24.9966 6.62659 24.9966 6.62997 24.9966H7.78964C7.78964 24.9966 7.79641 24.9966 7.79979 24.9966C7.82007 24.9966 7.84036 24.9896 7.86064 24.9826C7.87417 24.9757 7.88431 24.9652 7.89784 24.9548C7.9046 24.9478 7.91474 24.9408 7.9215 24.9339C7.92826 24.9269 7.93503 24.9129 7.94179 24.9025C7.94855 24.8885 7.95869 24.8781 7.96546 24.8641C7.9756 24.8363 7.97898 24.8119 7.97898 24.784V20.2427C7.97898 20.1207 7.89784 20.0266 7.79303 20.0266H6.83621C6.7314 20.0266 6.65026 20.1207 6.65026 20.2427V20.6783C6.65026 20.8003 6.7314 20.8944 6.83621 20.8944H7.23855V24.1288H6.65026C6.32568 24.1288 6.06197 23.8151 6.06197 23.4352V17.5206C6.06197 17.1407 6.32568 16.8271 6.65026 16.8271H7.23855V17.9842C7.23855 18.1062 7.31969 18.2003 7.4245 18.2003Z" fill="#3C3D3D"/>
<path d="M15.0554 5.89712C15.3225 6.04698 15.5896 6.17594 15.8634 6.26307C16.3774 6.43037 16.8034 6.31535 17.0975 5.92848C17.5641 5.31507 17.652 4.07082 17.3004 3.02872C17.013 2.17134 16.4889 1.64506 15.8634 1.58233C15.4003 1.53702 15.0791 1.63809 14.8897 1.88903C14.4603 2.45713 14.6902 3.78155 14.9337 5.18263C14.9743 5.41963 15.0148 5.65663 15.0554 5.89712ZM19.1971 5.68451C18.8793 5.68451 18.0746 6.73707 17.3105 7.78615C17.3578 7.75129 17.4086 7.71644 17.4559 7.68159C18.4262 6.98453 19.4304 6.26656 19.3053 5.8065C19.2749 5.69846 19.2377 5.69148 19.2241 5.688C19.214 5.688 19.2072 5.688 19.1971 5.688M15.6944 9.40332C15.7181 9.44514 15.7417 9.48348 15.7654 9.52531C15.9108 9.33361 16.0562 9.13147 16.2049 8.92932C16.019 9.08616 15.8465 9.243 15.6944 9.40332ZM13.1621 9.42075C13.2973 9.42075 13.4393 9.42772 13.5847 9.44166C13.9228 9.47303 14.2913 9.60547 14.6801 9.77276C14.8525 9.48 14.9573 9.13495 15.0114 8.75506C14.2947 7.73735 13.4528 6.91134 12.736 6.9427C12.0463 6.97059 11.5628 7.34351 11.3769 7.98481C11.2214 8.52503 11.2991 9.17678 11.5561 9.71351C12.0328 9.54273 12.5602 9.41726 13.1621 9.41726M14.8897 9.86686C14.9337 9.88778 14.9776 9.90869 15.025 9.9296C15.1196 9.74139 15.2515 9.55319 15.4104 9.36847C15.3394 9.24997 15.265 9.13495 15.1873 9.01994C15.1264 9.33013 15.0317 9.61592 14.8897 9.87035M15.2244 10.0237C15.2481 10.0342 15.2752 10.0481 15.2988 10.0586C15.3124 10.0655 15.3259 10.0725 15.3394 10.076C15.4307 9.96097 15.5254 9.84247 15.6166 9.717C15.5896 9.6682 15.5625 9.62289 15.5355 9.5741C15.407 9.72397 15.3022 9.87383 15.2244 10.0202M6.93768 9.34058C7.24196 9.52879 7.59697 9.63335 7.9824 9.64381C8.63493 9.66123 9.41593 9.94703 10.2071 10.2781C10.3558 10.2154 10.508 10.1492 10.6635 10.083C10.8833 9.98536 11.1098 9.88429 11.3498 9.79367C11.0828 9.20466 11.005 8.49714 11.174 7.90813C11.2991 7.47595 11.6677 6.74056 12.7293 6.69525C13.4832 6.66388 14.315 7.4167 15.0453 8.4135C15.0926 7.69553 14.9945 6.87997 14.8661 6.07138C14.342 5.76119 13.8349 5.36735 13.3379 4.98049C11.8333 3.80594 10.4099 2.69762 8.60788 3.8408C7.20139 4.73303 6.45082 6.28398 6.5962 7.99875C6.64015 8.49714 6.76187 8.9572 6.94106 9.34756M15.5524 10.1771C15.691 10.2398 15.8296 10.306 15.9683 10.3653C15.948 10.3234 15.9277 10.2851 15.904 10.2433C15.8533 10.1422 15.7958 10.0376 15.7384 9.93657C15.6741 10.0202 15.6133 10.1004 15.549 10.1805M15.1298 10.2502C15.1163 10.2921 15.1061 10.3339 15.096 10.3757C15.123 10.3409 15.1534 10.3095 15.1805 10.2746C15.1636 10.2677 15.1467 10.2572 15.1298 10.2502ZM7.15068 9.72397C7.38735 10.083 7.68149 10.3409 8.00944 10.4594C8.69916 10.7033 9.28069 10.6162 9.86898 10.4071C9.18602 10.1317 8.52673 9.91217 7.97564 9.89475C7.68149 9.88778 7.40425 9.82853 7.15068 9.72397ZM11.6744 9.93657C11.7623 10.0795 11.8638 10.2119 11.9821 10.3234C12.3134 10.6476 13.0336 11.0902 14.1155 10.3722C14.2812 10.2607 14.4232 10.1317 14.5381 9.98188C14.1899 9.83201 13.8619 9.72048 13.5678 9.6926C12.8375 9.62289 12.2323 9.74488 11.6778 9.93657M16.2793 10.4942C17.4694 10.9612 18.6967 11.0972 19.6637 9.51834C20.6982 7.82797 19.8361 4.85153 18.4059 2.95205L18.2335 2.72202C17.3116 1.49519 16.0122 0.734239 14.3352 0.439151L13.774 0.341562C11.4513 -0.0731873 8.86483 1.07347 7.01882 3.32846C5.86253 4.74349 5.43652 6.58372 5.94029 8.01617C6.09243 8.45184 6.31896 8.80734 6.59958 9.0757C6.48801 8.75157 6.41362 8.39259 6.3832 8.01269C6.22767 6.19685 7.0222 4.54831 8.50645 3.60728C10.4235 2.3944 11.9652 3.59682 13.4596 4.76091C13.9025 5.10596 14.3555 5.45797 14.8153 5.74725C14.7849 5.57299 14.7545 5.39872 14.7274 5.22794C14.4637 3.70138 14.2338 2.38046 14.7342 1.71825C14.9743 1.40109 15.3495 1.27214 15.8871 1.3279C16.5937 1.39761 17.1854 1.98313 17.5066 2.93113C17.892 4.07431 17.7906 5.40221 17.2632 6.09229C17.0197 6.41294 16.5667 6.74753 15.8127 6.50356C15.5727 6.42688 15.3394 6.32232 15.1095 6.20034C15.2413 7.0612 15.3293 7.92556 15.2447 8.68186C15.3597 8.84916 15.4679 9.01645 15.5761 9.19072C15.8939 8.85962 16.2962 8.53548 16.7222 8.21484C18.007 6.4234 18.8218 5.3325 19.2715 5.43357C19.3526 5.451 19.4608 5.51722 19.5149 5.72285C19.6941 6.37112 18.7102 7.07515 17.5742 7.89419C17.3409 8.06148 17.1009 8.23575 16.8642 8.41001C16.5396 8.8631 16.2117 9.31967 15.8939 9.73791C15.9615 9.86338 16.0291 9.98536 16.0934 10.1108C16.1576 10.2363 16.2218 10.3653 16.2861 10.4942M10.5215 10.4106C10.6229 10.4559 10.7277 10.4977 10.8292 10.543C12.0801 11.0867 13.3784 11.6478 14.129 11.2854C14.3319 11.1878 14.5854 10.9578 14.8694 10.6406C14.8694 10.6162 14.8694 10.5918 14.8694 10.5674C14.8694 10.428 14.8897 10.2921 14.9371 10.1561C14.8796 10.1283 14.8221 10.1004 14.7646 10.076C14.6226 10.2746 14.4468 10.4489 14.2271 10.5918C13.3581 11.1669 12.4892 11.1425 11.8536 10.5151C11.7049 10.3722 11.5764 10.2015 11.4716 10.0098C11.2214 10.1039 10.9847 10.2084 10.7447 10.313C10.6737 10.3443 10.6027 10.3757 10.5317 10.4071M15.096 10.7277C15.1602 11.0275 15.3969 11.3202 15.7992 11.5921C16.2759 11.9162 16.5092 12.5157 16.7155 13.0455C16.8135 13.2964 16.9014 13.509 16.9927 13.6798C17.0468 13.0768 16.7188 11.9371 16.1305 10.6998C15.877 10.5988 15.6302 10.4838 15.3935 10.3722C15.2921 10.4977 15.1906 10.6162 15.096 10.7242M20.448 14.3664H17.5607C17.3578 14.3664 17.1956 14.2897 17.0637 14.1642C16.969 14.2967 16.8304 14.3664 16.658 14.3664H5.32157C5.26071 14.3664 5.21338 14.3106 5.21338 14.2409C5.21338 14.1712 5.26071 14.1154 5.32157 14.1154H16.658C16.7763 14.1154 16.8575 14.0736 16.9116 13.983C16.756 13.7599 16.6411 13.4637 16.5227 13.157C16.3199 12.6377 16.1103 12.1009 15.6944 11.8151C15.2853 11.5363 15.0317 11.2436 14.9235 10.9229C14.6564 11.2122 14.413 11.4213 14.2068 11.5224C13.3784 11.9232 12.1038 11.369 10.7514 10.7835C10.5688 10.7033 10.3863 10.6232 10.2037 10.5465C9.50045 10.8288 8.79383 11.0031 7.94521 10.7033C7.47187 10.536 7.06615 10.1108 6.78215 9.53228C6.31896 9.22906 5.95719 8.7446 5.73743 8.11376C5.20324 6.5872 5.64614 4.64241 6.85991 3.15419C8.78369 0.801621 11.3803 -0.341555 13.8044 0.0906214L14.3657 0.18821C16.9318 0.637812 16.969 0.662209 18.3924 2.55124L18.5648 2.78127C20.0525 4.75743 20.9349 7.86979 19.8361 9.66123C18.8522 11.268 17.6013 11.2226 16.4281 10.8114C16.969 12.0103 17.3477 13.279 17.1651 13.9307C17.2733 14.0457 17.3984 14.1085 17.5573 14.1085H20.4447C20.5055 14.1085 20.5529 14.1642 20.5529 14.2339C20.5529 14.3036 20.5055 14.3594 20.4447 14.3594" fill="#00B3C4"/>
<path d="M15.583 5.65664C16.391 5.65664 16.8306 6.52448 17.2532 7.36444C17.6488 8.14514 18.0207 8.88402 18.6495 8.88402C18.7814 8.88402 18.9234 8.85266 19.0755 8.78644C19.5151 8.59823 19.8464 7.99876 19.9918 7.14138C20.1405 6.24914 20.056 5.1931 19.7619 4.24859C19.3156 2.81962 18.0004 1.11879 14.2576 1.11879C13.6558 1.11879 12.9999 1.1641 12.3102 1.25123C10.4439 1.49172 7.84055 3.63866 7.24888 5.42661C7.02912 6.09231 7.08997 6.66041 7.42807 7.11698C7.61402 7.36444 7.7966 7.48642 7.99269 7.48642C8.46265 7.48642 8.97318 6.79982 9.51075 6.07139C9.71699 5.79257 9.92999 5.50678 10.1464 5.24886C11.1505 4.06038 12.1716 2.9416 13.6491 2.3247C14.1055 2.1365 14.5112 2.03891 14.8595 2.03891C15.3294 2.03891 15.6946 2.22363 15.8873 2.55473C16.0428 2.8231 16.0732 3.17163 15.9718 3.48531C15.7216 4.24859 14.4132 4.87942 13.0303 5.5486C11.6272 6.22823 10.1734 6.92878 10.0111 7.70251C9.96718 7.90466 10.0213 8.1068 10.17 8.31941C10.2715 8.46579 10.4236 8.53549 10.6299 8.53549C11.448 8.53549 12.841 7.43066 13.8587 6.62207C14.3624 6.22126 14.758 5.90758 14.9879 5.80303C15.1975 5.70544 15.4004 5.65664 15.5897 5.65664M18.6495 9.13845C17.8989 9.13845 17.4763 8.30198 17.0672 7.49339C16.6547 6.67783 16.2659 5.90759 15.583 5.90759C15.4207 5.90759 15.2449 5.94941 15.0589 6.03654C14.8527 6.13064 14.447 6.45478 13.9736 6.83119C12.9357 7.6572 11.5089 8.78992 10.6265 8.78992C10.356 8.78992 10.1464 8.68536 10.001 8.48322C9.80828 8.20788 9.73728 7.92557 9.79813 7.64326C9.98747 6.74754 11.4244 6.05397 12.9458 5.31857C14.2272 4.69819 15.5526 4.06038 15.7689 3.39817C15.8467 3.16117 15.823 2.89978 15.7081 2.70112C15.5999 2.5164 15.3666 2.29682 14.8595 2.29682C14.5383 2.29682 14.1562 2.38744 13.7234 2.56868C12.2899 3.16466 11.2858 4.26253 10.3019 5.4301C10.0889 5.68453 9.87928 5.96683 9.67642 6.24217C9.10503 7.01591 8.56408 7.74433 7.99607 7.74433C7.73912 7.74433 7.49231 7.59098 7.26917 7.28776C6.88035 6.76148 6.80597 6.08882 7.05278 5.33948C7.67826 3.44697 10.3222 1.26169 12.2899 1.00726C12.9864 0.916647 13.6524 0.871338 14.261 0.871338C18.1289 0.871338 19.4981 2.66278 19.9681 4.16842C20.2758 5.15476 20.3637 6.2596 20.2048 7.19714C20.0459 8.14166 19.6638 8.81083 19.1533 9.03041C18.9809 9.1036 18.8118 9.14194 18.6529 9.14194" fill="#00B3C4"/>
</g>
<defs>
<clipPath id="clip0_6969_19">
<rect width="88" height="25" fill="white"/>
</clipPath>
</defs>
</svg>
