<svg width="21" height="21" viewBox="0 0 21 21" fill="none" xmlns="http://www.w3.org/2000/svg">
<path d="M5.94333 1.15191C6.2736 1.05157 6.62268 1.23797 6.72301 1.56825L7.08623 2.76384C8.0676 2.12286 9.24071 1.74992 10.5 1.74992C11.7593 1.74992 12.9324 2.12286 13.9138 2.76384L14.277 1.56825C14.3773 1.23797 14.7264 1.05157 15.0567 1.15191C15.3869 1.25224 15.5733 1.60132 15.473 1.9316L14.9597 3.62119C16.0663 4.74825 16.75 6.2946 16.75 7.99992H17.375C17.7202 7.99992 18 7.7201 18 7.37492V6.74992C18 6.40474 18.2798 6.12492 18.625 6.12492C18.9702 6.12492 19.25 6.40474 19.25 6.74992V7.37492C19.25 8.41045 18.4105 9.24992 17.375 9.24992H16.75V10.4999H18.625C18.9702 10.4999 19.25 10.7797 19.25 11.1249C19.25 11.4701 18.9702 11.7499 18.625 11.7499H16.75V12.9999H17.375C18.4105 12.9999 19.25 13.8394 19.25 14.8749V15.4999C19.25 15.8451 18.9702 16.1249 18.625 16.1249C18.2798 16.1249 18 15.8451 18 15.4999V14.8749C18 14.5297 17.7202 14.2499 17.375 14.2499H16.75C16.75 17.7017 13.9518 20.4999 10.5 20.4999C7.04822 20.4999 4.25 17.7017 4.25 14.2499H3.625C3.27982 14.2499 3 14.5297 3 14.8749V15.4999C3 15.8451 2.72018 16.1249 2.375 16.1249C2.02982 16.1249 1.75 15.8451 1.75 15.4999V14.8749C1.75 13.8394 2.58947 12.9999 3.625 12.9999H4.25V11.7499H2.375C2.02982 11.7499 1.75 11.4701 1.75 11.1249C1.75 10.7797 2.02982 10.4999 2.375 10.4999H4.25V9.24992H3.625C2.58947 9.24992 1.75 8.41045 1.75 7.37492V6.74992C1.75 6.40474 2.02982 6.12492 2.375 6.12492C2.72018 6.12492 3 6.40474 3 6.74992V7.37492C3 7.7201 3.27982 7.99992 3.625 7.99992H4.25C4.25 6.2946 4.93366 4.74825 6.04028 3.62119L5.52699 1.9316C5.42665 1.60132 5.61305 1.25224 5.94333 1.15191ZM5.5 9.24992V14.2499C5.5 16.7997 7.40856 18.9037 9.875 19.2112V9.24992H5.5ZM11.125 9.24992V19.2112C13.5914 18.9037 15.5 16.7997 15.5 14.2499V9.24992H11.125ZM15.5 7.99992C15.5 6.51915 14.8571 5.18936 13.8332 4.27293C12.9482 3.48083 11.781 2.99992 10.5 2.99992C9.21901 2.99992 8.05183 3.48083 7.16682 4.27293C6.14291 5.18936 5.5 6.51915 5.5 7.99992H15.5Z" fill="#102138"/>
</svg>
