<svg width="21" height="21" viewBox="0 0 21 21" fill="none" xmlns="http://www.w3.org/2000/svg">
<path d="M10.5 19.25C5.66751 19.25 1.75 15.3325 1.75 10.5C1.75 5.66751 5.66751 1.75 10.5 1.75C15.3325 1.75 19.25 5.66751 19.25 10.5C19.25 15.3325 15.3325 19.25 10.5 19.25ZM10.5 20.5C16.0228 20.5 20.5 16.0228 20.5 10.5C20.5 4.97715 16.0228 0.5 10.5 0.5C4.97715 0.5 0.5 4.97715 0.5 10.5C0.5 16.0228 4.97715 20.5 10.5 20.5Z" fill="#24A31A"/>
<path d="M14.2121 6.71209C14.2032 6.72093 14.1949 6.73029 14.1872 6.74013L9.84674 12.2709L7.22985 9.65403C6.86373 9.28791 6.27014 9.28791 5.90402 9.65403C5.5379 10.0201 5.5379 10.6137 5.90402 10.9799L9.21208 14.2879C9.5782 14.654 10.1718 14.654 10.5379 14.2879C10.5461 14.2798 10.5538 14.2712 10.561 14.2622L15.5512 8.02434C15.904 7.65727 15.8995 7.07371 15.5379 6.71209C15.1718 6.34597 14.5782 6.34597 14.2121 6.71209Z" fill="#24A31A"/>
</svg>
