<svg width="34" height="34" viewBox="0 0 34 34" fill="none" xmlns="http://www.w3.org/2000/svg">
<rect width="34" height="34" rx="6" fill="#E6EAEB"/>
<path d="M17 11.375C17 11.0298 16.7202 10.75 16.375 10.75C16.0298 10.75 15.75 11.0298 15.75 11.375V18.25C15.75 18.4743 15.8702 18.6814 16.0649 18.7927L20.4399 21.2927C20.7396 21.4639 21.1214 21.3598 21.2927 21.0601C21.4639 20.7604 21.3598 20.3786 21.0601 20.2073L17 17.8873V11.375Z" fill="#102138"/>
<path d="M17 27C22.5228 27 27 22.5228 27 17C27 11.4772 22.5228 7 17 7C11.4772 7 7 11.4772 7 17C7 22.5228 11.4772 27 17 27ZM25.75 17C25.75 21.8325 21.8325 25.75 17 25.75C12.1675 25.75 8.25 21.8325 8.25 17C8.25 12.1675 12.1675 8.25 17 8.25C21.8325 8.25 25.75 12.1675 25.75 17Z" fill="#102138"/>
</svg>
