<svg width="34" height="34" viewBox="0 0 34 34" fill="none" xmlns="http://www.w3.org/2000/svg">
<rect width="34" height="34" rx="6" fill="#E6EAEB"/>
<path d="M12.3973 10.3593C13.543 9.83848 15.1697 9.5 17 9.5C18.8303 9.5 20.457 9.83848 21.6027 10.3593C22.8049 10.9057 23.25 11.5329 23.25 12C23.25 12.4671 22.8049 13.0943 21.6027 13.6407C20.457 14.1615 18.8303 14.5 17 14.5C15.1697 14.5 13.543 14.1615 12.3973 13.6407C11.1951 13.0943 10.75 12.4671 10.75 12C10.75 11.5329 11.1951 10.9057 12.3973 10.3593ZM23.25 14.1227V15.75C23.25 16.2171 22.8049 16.8443 21.6027 17.3907C20.457 17.9115 18.8303 18.25 17 18.25C15.1697 18.25 13.543 17.9115 12.3973 17.3907C11.1951 16.8443 10.75 16.2171 10.75 15.75V14.1227C11.0888 14.3756 11.4749 14.5945 11.88 14.7787C13.2225 15.3889 15.0333 15.75 17 15.75C18.9667 15.75 20.7775 15.3889 22.12 14.7787C22.5251 14.5945 22.9112 14.3756 23.25 14.1227ZM24.5 12C24.5 10.7413 23.4061 9.8059 22.12 9.22131C20.7775 8.61108 18.9667 8.25 17 8.25C15.0333 8.25 13.2225 8.61108 11.88 9.22131C10.5939 9.8059 9.5 10.7413 9.5 12V23.25C9.5 24.5087 10.5939 25.4441 11.88 26.0287C13.2225 26.6389 15.0333 27 17 27C18.9667 27 20.7775 26.6389 22.12 26.0287C23.4061 25.4441 24.5 24.5087 24.5 23.25V12ZM23.25 17.8727V19.5C23.25 19.9671 22.8049 20.5943 21.6027 21.1407C20.457 21.6615 18.8303 22 17 22C15.1697 22 13.543 21.6615 12.3973 21.1407C11.1951 20.5943 10.75 19.9671 10.75 19.5V17.8727C11.0888 18.1256 11.4749 18.3445 11.88 18.5287C13.2225 19.1389 15.0333 19.5 17 19.5C18.9667 19.5 20.7775 19.1389 22.12 18.5287C22.5251 18.3445 22.9112 18.1256 23.25 17.8727ZM23.25 21.6227V23.25C23.25 23.7171 22.8049 24.3443 21.6027 24.8907C20.457 25.4115 18.8303 25.75 17 25.75C15.1697 25.75 13.543 25.4115 12.3973 24.8907C11.1951 24.3443 10.75 23.7171 10.75 23.25V21.6227C11.0888 21.8756 11.4749 22.0945 11.88 22.2787C13.2225 22.8889 15.0333 23.25 17 23.25C18.9667 23.25 20.7775 22.8889 22.12 22.2787C22.5251 22.0945 22.9112 21.8756 23.25 21.6227Z" fill="#102138"/>
</svg>
