<svg width="34" height="34" viewBox="0 0 34 34" fill="none" xmlns="http://www.w3.org/2000/svg">
<rect width="34" height="34" rx="6" fill="#E6EAEB"/>
<path d="M17.2941 8.94853C17.1103 8.85049 16.8897 8.85049 16.7059 8.94853L7.33088 13.9485C7.12722 14.0572 7 14.2692 7 14.5C7 14.7308 7.12722 14.9428 7.33088 15.0515L10.9844 17L7.33088 18.9485C7.12722 19.0572 7 19.2692 7 19.5C7 19.7308 7.12722 19.9428 7.33088 20.0515L16.7059 25.0515C16.8897 25.1495 17.1103 25.1495 17.2941 25.0515L26.6691 20.0515C26.8728 19.9428 27 19.7308 27 19.5C27 19.2692 26.8728 19.0572 26.6691 18.9485L23.0156 17L26.6691 15.0515C26.8728 14.9428 27 14.7308 27 14.5C27 14.2692 26.8728 14.0572 26.6691 13.9485L17.2941 8.94853ZM21.6875 17.7083L25.0469 19.5L17 23.7917L8.95312 19.5L12.3125 17.7083L16.7059 20.0515C16.8897 20.1495 17.1103 20.1495 17.2941 20.0515L21.6875 17.7083ZM17 18.7917L8.95312 14.5L17 10.2083L25.0469 14.5L17 18.7917Z" fill="#102138"/>
</svg>
