<svg width="21" height="21" viewBox="0 0 21 21" fill="none" xmlns="http://www.w3.org/2000/svg">
<path d="M2.375 1.75C2.02982 1.75 1.75 2.02982 1.75 2.375V7.375C1.75 7.72018 1.47018 8 1.125 8C0.779822 8 0.5 7.72018 0.5 7.375V2.375C0.5 1.33947 1.33947 0.5 2.375 0.5H7.375C7.72018 0.5 8 0.779822 8 1.125C8 1.47018 7.72018 1.75 7.375 1.75H2.375ZM13 1.125C13 0.779822 13.2798 0.5 13.625 0.5H18.625C19.6605 0.5 20.5 1.33947 20.5 2.375V7.375C20.5 7.72018 20.2202 8 19.875 8C19.5298 8 19.25 7.72018 19.25 7.375V2.375C19.25 2.02982 18.9702 1.75 18.625 1.75H13.625C13.2798 1.75 13 1.47018 13 1.125ZM1.125 13C1.47018 13 1.75 13.2798 1.75 13.625V18.625C1.75 18.9702 2.02982 19.25 2.375 19.25H7.375C7.72018 19.25 8 19.5298 8 19.875C8 20.2202 7.72018 20.5 7.375 20.5H2.375C1.33947 20.5 0.5 19.6605 0.5 18.625V13.625C0.5 13.2798 0.779822 13 1.125 13ZM19.875 13C20.2202 13 20.5 13.2798 20.5 13.625V18.625C20.5 19.6605 19.6605 20.5 18.625 20.5H13.625C13.2798 20.5 13 20.2202 13 19.875C13 19.5298 13.2798 19.25 13.625 19.25H18.625C18.9702 19.25 19.25 18.9702 19.25 18.625V13.625C19.25 13.2798 19.5298 13 19.875 13Z" fill="#102138"/>
</svg>
