<svg width="34" height="34" viewBox="0 0 34 34" fill="none" xmlns="http://www.w3.org/2000/svg">
<rect width="34" height="34" rx="6" fill="#E6EAEB"/>
<path d="M20.75 14.5C20.75 16.5711 19.0711 18.25 17 18.25C14.9289 18.25 13.25 16.5711 13.25 14.5C13.25 12.4289 14.9289 10.75 17 10.75C19.0711 10.75 20.75 12.4289 20.75 14.5Z" fill="#102138"/>
<path fill-rule="evenodd" clip-rule="evenodd" d="M7 17C7 11.4772 11.4772 7 17 7C22.5228 7 27 11.4772 27 17C27 22.5228 22.5228 27 17 27C11.4772 27 7 22.5228 7 17ZM17 8.25C12.1675 8.25 8.25 12.1675 8.25 17C8.25 19.0668 8.96657 20.9662 10.1648 22.4634C11.0537 21.0316 13.0058 19.5 17 19.5C20.9942 19.5 22.9463 21.0316 23.8352 22.4634C25.0334 20.9662 25.75 19.0668 25.75 17C25.75 12.1675 21.8325 8.25 17 8.25Z" fill="#102138"/>
</svg>
