<svg width="16" height="17" viewBox="0 0 16 17" fill="none" xmlns="http://www.w3.org/2000/svg">
<path d="M8.23529 2.05882C8.08824 1.98039 7.91176 1.98039 7.76471 2.05882L0.264706 6.05882C0.101774 6.14572 0 6.31534 0 6.5C0 6.68466 0.101774 6.85428 0.264706 6.94118L3.1875 8.5L0.264706 10.0588C0.101774 10.1457 0 10.3153 0 10.5C0 10.6847 0.101774 10.8543 0.264706 10.9412L7.76471 14.9412C7.91176 15.0196 8.08824 15.0196 8.23529 14.9412L15.7353 10.9412C15.8982 10.8543 16 10.6847 16 10.5C16 10.3153 15.8982 10.1457 15.7353 10.0588L12.8125 8.5L15.7353 6.94118C15.8982 6.85428 16 6.68466 16 6.5C16 6.31534 15.8982 6.14572 15.7353 6.05882L8.23529 2.05882ZM11.75 9.06667L14.4375 10.5L8 13.9333L1.5625 10.5L4.25 9.06667L7.76471 10.9412C7.91176 11.0196 8.08824 11.0196 8.23529 10.9412L11.75 9.06667ZM8 9.93333L1.5625 6.5L8 3.06667L14.4375 6.5L8 9.93333Z" fill="#102138"/>
</svg>
