<svg width="34" height="34" viewBox="0 0 34 34" fill="none" xmlns="http://www.w3.org/2000/svg">
<rect width="34" height="34" rx="6" fill="#E6EAEB"/>
<path d="M11.375 25.75C13.1009 25.75 14.5 24.3509 14.5 22.625C14.5 20.8991 13.1009 19.5 11.375 19.5C9.64911 19.5 8.25 20.8991 8.25 22.625C8.25 24.3509 9.64911 25.75 11.375 25.75ZM22.625 14.5C24.3509 14.5 25.75 13.1009 25.75 11.375C25.75 9.64911 24.3509 8.25 22.625 8.25C20.8991 8.25 19.5 9.64911 19.5 11.375C19.5 13.1009 20.8991 14.5 22.625 14.5ZM22.625 25.75C20.8991 25.75 19.5 24.3509 19.5 22.625C19.5 20.8991 20.8991 19.5 22.625 19.5C24.3509 19.5 25.75 20.8991 25.75 22.625C25.75 24.3509 24.3509 25.75 22.625 25.75ZM27 11.375C27 13.7912 25.0412 15.75 22.625 15.75C20.2088 15.75 18.25 13.7912 18.25 11.375C18.25 8.95875 20.2088 7 22.625 7C25.0412 7 27 8.95875 27 11.375ZM15.75 22.625C15.75 25.0412 13.7912 27 11.375 27C8.95875 27 7 25.0412 7 22.625C7 20.2088 8.95875 18.25 11.375 18.25C13.7912 18.25 15.75 20.2088 15.75 22.625ZM22.625 27C25.0412 27 27 25.0412 27 22.625C27 20.2088 25.0412 18.25 22.625 18.25C20.2088 18.25 18.25 20.2088 18.25 22.625C18.25 25.0412 20.2088 27 22.625 27Z" fill="#102138"/>
<path d="M11.375 13.25C10.3395 13.25 9.5 12.4105 9.5 11.375C9.5 10.3395 10.3395 9.5 11.375 9.5C12.4105 9.5 13.25 10.3395 13.25 11.375C13.25 12.4105 12.4105 13.25 11.375 13.25ZM11.375 15.75C13.7912 15.75 15.75 13.7912 15.75 11.375C15.75 8.95875 13.7912 7 11.375 7C8.95875 7 7 8.95875 7 11.375C7 13.7912 8.95875 15.75 11.375 15.75Z" fill="#102138"/>
</svg>
