<svg width="21" height="21" viewBox="0 0 21 21" fill="none" xmlns="http://www.w3.org/2000/svg">
<path d="M17.3729 1.49334L17.5581 1.30815C18.1473 0.718897 19.1027 0.718897 19.692 1.30815C20.2812 1.89741 20.2812 2.85278 19.692 3.44204L19.5068 3.62723C20.1644 4.36347 20.1399 5.49414 19.4331 6.20092L6.56695 19.067C6.48686 19.1471 6.38649 19.204 6.2766 19.2314L1.2766 20.4814C1.06361 20.5347 0.838309 20.4723 0.683072 20.317C0.527834 20.1618 0.465428 19.9365 0.518674 19.7235L1.76867 14.7235C1.79615 14.6136 1.85297 14.5133 1.93307 14.4332L13.9846 2.38157C13.7407 2.20958 13.4013 2.2327 13.1831 2.45092L9.06695 6.56704C8.82288 6.81111 8.42715 6.81111 8.18307 6.56704C7.93899 6.32296 7.93899 5.92723 8.18307 5.68315L12.2992 1.56704C13.0067 0.85957 14.1388 0.83564 14.875 1.49525C15.5847 0.859368 16.6624 0.858733 17.3729 1.49334ZM16.567 2.45092C16.3229 2.20684 15.9271 2.20684 15.6831 2.45092L2.93937 15.1946L1.98399 19.0161L5.80548 18.0607L18.5492 5.31704C18.7933 5.07296 18.7933 4.67723 18.5492 4.43315L16.567 2.45092Z" fill="#354344"/>
</svg>
