<svg width="131" height="14" viewBox="0 0 131 14" fill="none" xmlns="http://www.w3.org/2000/svg">
<path d="M2.99951 6.86426V10H0.949219V0.897461H4.16113C6.45475 0.897461 7.60156 1.86442 7.60156 3.79834C7.60156 4.7124 7.27148 5.45296 6.61133 6.02002C5.9554 6.58285 5.07731 6.86426 3.97705 6.86426H2.99951ZM2.99951 2.47168V5.30908H3.80566C4.89746 5.30908 5.44336 4.83089 5.44336 3.87451C5.44336 2.93929 4.89746 2.47168 3.80566 2.47168H2.99951ZM11.4419 10.1587C10.3586 10.1587 9.50586 9.85612 8.88379 9.25098C8.26595 8.6416 7.95703 7.81641 7.95703 6.77539C7.95703 5.70052 8.27865 4.86051 8.92188 4.25537C9.5651 3.646 10.4347 3.34131 11.5308 3.34131C12.6099 3.34131 13.4562 3.646 14.0698 4.25537C14.6834 4.86051 14.9902 5.66243 14.9902 6.66113C14.9902 7.74023 14.6729 8.59294 14.0381 9.21924C13.4076 9.84554 12.5422 10.1587 11.4419 10.1587ZM11.4927 4.87744C11.0187 4.87744 10.6506 5.04036 10.3882 5.36621C10.1258 5.69206 9.99463 6.15332 9.99463 6.75C9.99463 7.99837 10.4982 8.62256 11.5054 8.62256C12.466 8.62256 12.9463 7.98145 12.9463 6.69922C12.9463 5.4847 12.4618 4.87744 11.4927 4.87744ZM25.7051 3.5L23.8325 10H21.7251L20.7666 6.19141C20.7031 5.9375 20.6672 5.66032 20.6587 5.35986H20.6206C20.591 5.68994 20.5487 5.95866 20.4937 6.16602L19.4653 10H17.3833L15.5488 3.5H17.5928L18.4878 7.74023C18.5301 7.93913 18.5618 8.18034 18.583 8.46387H18.6211C18.6423 8.16764 18.6803 7.91797 18.7354 7.71484L19.8525 3.5H21.7632L22.7661 7.74023C22.7915 7.84603 22.8211 8.09147 22.855 8.47656H22.8994C22.9206 8.23112 22.9544 7.98568 23.001 7.74023L23.8452 3.5H25.7051ZM32.4399 7.32129H28.1997C28.2674 8.26497 28.862 8.73682 29.9834 8.73682C30.6986 8.73682 31.327 8.56755 31.8687 8.229V9.67627C31.2677 9.99788 30.487 10.1587 29.5264 10.1587C28.4769 10.1587 27.6623 9.86882 27.0825 9.28906C26.5028 8.70508 26.2129 7.89258 26.2129 6.85156C26.2129 5.77246 26.526 4.91764 27.1523 4.28711C27.7786 3.65658 28.5488 3.34131 29.4629 3.34131C30.4108 3.34131 31.1429 3.62272 31.6592 4.18555C32.1797 4.74837 32.4399 5.51221 32.4399 6.47705V7.32129ZM30.5801 6.08984C30.5801 5.15885 30.2035 4.69336 29.4502 4.69336C29.1286 4.69336 28.8493 4.82666 28.6123 5.09326C28.3796 5.35986 28.2378 5.69206 28.187 6.08984H30.5801ZM37.8735 5.30908C37.6323 5.1779 37.3509 5.1123 37.0293 5.1123C36.5934 5.1123 36.2528 5.27311 36.0073 5.59473C35.7619 5.91211 35.6392 6.34587 35.6392 6.896V10H33.6333V3.5H35.6392V4.70605H35.6646C35.9819 3.82585 36.5532 3.38574 37.3784 3.38574C37.59 3.38574 37.755 3.41113 37.8735 3.46191V5.30908ZM44.6021 7.32129H40.3618C40.4295 8.26497 41.0241 8.73682 42.1455 8.73682C42.8607 8.73682 43.4891 8.56755 44.0308 8.229V9.67627C43.4299 9.99788 42.6491 10.1587 41.6885 10.1587C40.639 10.1587 39.8244 9.86882 39.2446 9.28906C38.6649 8.70508 38.375 7.89258 38.375 6.85156C38.375 5.77246 38.6882 4.91764 39.3145 4.28711C39.9408 3.65658 40.7109 3.34131 41.625 3.34131C42.5729 3.34131 43.305 3.62272 43.8213 4.18555C44.3418 4.74837 44.6021 5.51221 44.6021 6.47705V7.32129ZM42.7422 6.08984C42.7422 5.15885 42.3656 4.69336 41.6123 4.69336C41.2907 4.69336 41.0114 4.82666 40.7744 5.09326C40.5417 5.35986 40.3999 5.69206 40.3491 6.08984H42.7422ZM52.1558 10H50.1499V9.10498H50.1245C49.6675 9.80745 48.9967 10.1587 48.1123 10.1587C47.2998 10.1587 46.646 9.87305 46.1509 9.30176C45.6558 8.72624 45.4082 7.92432 45.4082 6.896C45.4082 5.82113 45.6812 4.95996 46.2271 4.3125C46.7729 3.66504 47.4881 3.34131 48.3726 3.34131C49.2104 3.34131 49.7944 3.64176 50.1245 4.24268H50.1499V0.376953H52.1558V10ZM50.188 6.83887V6.3501C50.188 5.92692 50.0653 5.57568 49.8198 5.29639C49.5744 5.01709 49.2549 4.87744 48.8613 4.87744C48.417 4.87744 48.07 5.05306 47.8203 5.4043C47.5706 5.7513 47.4458 6.22949 47.4458 6.83887C47.4458 7.41016 47.5664 7.85026 47.8076 8.15918C48.0488 8.4681 48.3831 8.62256 48.8105 8.62256C49.2168 8.62256 49.5469 8.45964 49.8008 8.13379C50.0589 7.80794 50.188 7.3763 50.188 6.83887ZM59.4683 9.24463H59.4429V10H57.437V0.376953H59.4429V4.47754H59.4683C59.9634 3.72005 60.668 3.34131 61.582 3.34131C62.4199 3.34131 63.0653 3.62907 63.5181 4.20459C63.9709 4.78011 64.1973 5.56722 64.1973 6.56592C64.1973 7.64925 63.9328 8.51888 63.4038 9.1748C62.8748 9.83073 62.1681 10.1587 61.2837 10.1587C60.4839 10.1587 59.8787 9.854 59.4683 9.24463ZM59.4111 6.50244V7.16895C59.4111 7.58789 59.5317 7.9349 59.7729 8.20996C60.0142 8.48503 60.3231 8.62256 60.6997 8.62256C61.1567 8.62256 61.5101 8.44694 61.7598 8.0957C62.0137 7.74023 62.1406 7.23877 62.1406 6.59131C62.1406 6.05387 62.0243 5.63493 61.7915 5.33447C61.563 5.02979 61.235 4.87744 60.8076 4.87744C60.4056 4.87744 60.0713 5.02767 59.8047 5.32812C59.5423 5.62858 59.4111 6.02002 59.4111 6.50244ZM71.6875 3.5L69.0469 10.5205C68.4121 12.209 67.4557 13.0532 66.1777 13.0532C65.6911 13.0532 65.2912 12.9982 64.978 12.8882V11.2886C65.2446 11.4451 65.5345 11.5234 65.8477 11.5234C66.3639 11.5234 66.7236 11.2801 66.9268 10.7935L67.2695 9.9873L64.6289 3.5H66.8506L68.063 7.45459C68.1392 7.70003 68.1984 7.98991 68.2407 8.32422H68.2661C68.3042 8.07878 68.374 7.79313 68.4756 7.46729L69.7007 3.5H71.6875Z" fill="#354344"/>
<path d="M76.2832 10V0.897461H79.5967C80.6123 0.897461 81.3931 1.08366 81.939 1.45605C82.4849 1.82845 82.7578 2.35319 82.7578 3.03027C82.7578 3.52116 82.5907 3.95068 82.2563 4.31885C81.9263 4.68701 81.5031 4.94303 80.9868 5.08691V5.1123C81.6343 5.19271 82.1506 5.4318 82.5356 5.82959C82.925 6.22738 83.1196 6.71191 83.1196 7.2832C83.1196 8.11686 82.8213 8.77913 82.2246 9.27002C81.6279 9.75667 80.8133 10 79.7808 10H76.2832ZM78.3335 2.4082V4.56641H79.2349C79.658 4.56641 79.9902 4.46484 80.2314 4.26172C80.4769 4.05436 80.5996 3.77083 80.5996 3.41113C80.5996 2.74251 80.1003 2.4082 79.1016 2.4082H78.3335ZM78.3335 6.08984V8.48926H79.4443C79.9183 8.48926 80.2886 8.37923 80.5552 8.15918C80.826 7.93913 80.9614 7.63867 80.9614 7.25781C80.9614 6.89388 80.8281 6.60824 80.5615 6.40088C80.2992 6.19352 79.931 6.08984 79.457 6.08984H78.3335ZM85.4429 2.47168C85.1043 2.47168 84.8271 2.37223 84.6113 2.17334C84.3955 1.97021 84.2876 1.72266 84.2876 1.43066C84.2876 1.13021 84.3955 0.884766 84.6113 0.694336C84.8271 0.503906 85.1043 0.408691 85.4429 0.408691C85.7856 0.408691 86.0628 0.503906 86.2744 0.694336C86.4902 0.884766 86.5981 1.13021 86.5981 1.43066C86.5981 1.73535 86.4902 1.98503 86.2744 2.17969C86.0628 2.37435 85.7856 2.47168 85.4429 2.47168ZM86.4331 10H84.4272V3.5H86.4331V10ZM94.4946 9.25732C94.4946 10.4634 94.1455 11.3965 93.4473 12.0566C92.749 12.721 91.7376 13.0532 90.4131 13.0532C89.5371 13.0532 88.8431 12.9284 88.3311 12.6787V10.9902C88.9997 11.3796 89.6746 11.5742 90.356 11.5742C91.033 11.5742 91.5578 11.3944 91.9302 11.0347C92.3026 10.6792 92.4888 10.1947 92.4888 9.58105V9.06689H92.4634C92.0063 9.79476 91.3314 10.1587 90.4385 10.1587C89.609 10.1587 88.951 9.8667 88.4644 9.28271C87.9777 8.69873 87.7344 7.91585 87.7344 6.93408C87.7344 5.83382 88.0052 4.95996 88.5469 4.3125C89.0885 3.66504 89.8016 3.34131 90.686 3.34131C91.4774 3.34131 92.0698 3.646 92.4634 4.25537H92.4888V3.5H94.4946V9.25732ZM92.5142 6.87695V6.36279C92.5142 5.95231 92.3914 5.60319 92.146 5.31543C91.9048 5.02344 91.5895 4.87744 91.2002 4.87744C90.7559 4.87744 90.4067 5.05094 90.1528 5.39795C89.8989 5.74495 89.772 6.23372 89.772 6.86426C89.772 7.40592 89.8926 7.83545 90.1338 8.15283C90.375 8.46598 90.7051 8.62256 91.124 8.62256C91.5387 8.62256 91.873 8.46387 92.127 8.14648C92.3851 7.82487 92.5142 7.40169 92.5142 6.87695ZM99.96 10V0.897461H103.273C104.289 0.897461 105.07 1.08366 105.616 1.45605C106.162 1.82845 106.435 2.35319 106.435 3.03027C106.435 3.52116 106.267 3.95068 105.933 4.31885C105.603 4.68701 105.18 4.94303 104.664 5.08691V5.1123C105.311 5.19271 105.827 5.4318 106.212 5.82959C106.602 6.22738 106.796 6.71191 106.796 7.2832C106.796 8.11686 106.498 8.77913 105.901 9.27002C105.305 9.75667 104.49 10 103.458 10H99.96ZM102.01 2.4082V4.56641H102.912C103.335 4.56641 103.667 4.46484 103.908 4.26172C104.154 4.05436 104.276 3.77083 104.276 3.41113C104.276 2.74251 103.777 2.4082 102.778 2.4082H102.01ZM102.01 6.08984V8.48926H103.121C103.595 8.48926 103.965 8.37923 104.232 8.15918C104.503 7.93913 104.638 7.63867 104.638 7.25781C104.638 6.89388 104.505 6.60824 104.238 6.40088C103.976 6.19352 103.608 6.08984 103.134 6.08984H102.01ZM112.344 5.30908C112.103 5.1779 111.822 5.1123 111.5 5.1123C111.064 5.1123 110.723 5.27311 110.478 5.59473C110.233 5.91211 110.11 6.34587 110.11 6.896V10H108.104V3.5H110.11V4.70605H110.135C110.453 3.82585 111.024 3.38574 111.849 3.38574C112.061 3.38574 112.226 3.41113 112.344 3.46191V5.30908ZM118.692 10H116.794V9.06689H116.769C116.333 9.79476 115.687 10.1587 114.833 10.1587C114.202 10.1587 113.705 9.98096 113.341 9.62549C112.981 9.26579 112.801 8.7876 112.801 8.19092C112.801 6.92985 113.548 6.20199 115.042 6.00732L116.807 5.77246C116.807 5.06152 116.422 4.70605 115.651 4.70605C114.877 4.70605 114.141 4.93669 113.442 5.39795V3.88721C113.722 3.74333 114.103 3.61637 114.585 3.50635C115.072 3.39632 115.514 3.34131 115.912 3.34131C117.765 3.34131 118.692 4.26595 118.692 6.11523V10ZM116.807 7.35938V6.92139L115.626 7.07373C114.974 7.15837 114.648 7.45247 114.648 7.95605C114.648 8.18457 114.727 8.37288 114.883 8.521C115.044 8.66488 115.26 8.73682 115.531 8.73682C115.907 8.73682 116.214 8.60775 116.451 8.34961C116.688 8.08724 116.807 7.75716 116.807 7.35938ZM121.294 2.47168C120.956 2.47168 120.679 2.37223 120.463 2.17334C120.247 1.97021 120.139 1.72266 120.139 1.43066C120.139 1.13021 120.247 0.884766 120.463 0.694336C120.679 0.503906 120.956 0.408691 121.294 0.408691C121.637 0.408691 121.914 0.503906 122.126 0.694336C122.342 0.884766 122.45 1.13021 122.45 1.43066C122.45 1.73535 122.342 1.98503 122.126 2.17969C121.914 2.37435 121.637 2.47168 121.294 2.47168ZM122.285 10H120.279V3.5H122.285V10ZM130.251 10H128.251V6.38818C128.251 5.38102 127.892 4.87744 127.172 4.87744C126.825 4.87744 126.54 5.01074 126.315 5.27734C126.091 5.54395 125.979 5.88249 125.979 6.29297V10H123.973V3.5H125.979V4.52832H126.004C126.483 3.73698 127.179 3.34131 128.093 3.34131C129.532 3.34131 130.251 4.23421 130.251 6.02002V10Z" fill="#03BAC6"/>
</svg>
