<svg width="21" height="21" viewBox="0 0 21 21" fill="none" xmlns="http://www.w3.org/2000/svg">
<path d="M7.375 0.5C7.72018 0.5 8 0.779822 8 1.125V6.125C8 7.16053 7.16053 8 6.125 8H1.125C0.779822 8 0.5 7.72018 0.5 7.375C0.5 7.02982 0.779822 6.75 1.125 6.75H6.125C6.47018 6.75 6.75 6.47018 6.75 6.125V1.125C6.75 0.779822 7.02982 0.5 7.375 0.5ZM13.625 0.5C13.9702 0.5 14.25 0.779822 14.25 1.125V6.125C14.25 6.47018 14.5298 6.75 14.875 6.75H19.875C20.2202 6.75 20.5 7.02982 20.5 7.375C20.5 7.72018 20.2202 8 19.875 8H14.875C13.8395 8 13 7.16053 13 6.125V1.125C13 0.779822 13.2798 0.5 13.625 0.5ZM0.5 13.625C0.5 13.2798 0.779822 13 1.125 13H6.125C7.16053 13 8 13.8395 8 14.875V19.875C8 20.2202 7.72018 20.5 7.375 20.5C7.02982 20.5 6.75 20.2202 6.75 19.875V14.875C6.75 14.5298 6.47018 14.25 6.125 14.25H1.125C0.779822 14.25 0.5 13.9702 0.5 13.625ZM13 14.875C13 13.8395 13.8395 13 14.875 13H19.875C20.2202 13 20.5 13.2798 20.5 13.625C20.5 13.9702 20.2202 14.25 19.875 14.25H14.875C14.5298 14.25 14.25 14.5298 14.25 14.875V19.875C14.25 20.2202 13.9702 20.5 13.625 20.5C13.2798 20.5 13 20.2202 13 19.875V14.875Z" fill="#102138"/>
</svg>
