<svg width="21" height="21" viewBox="0 0 21 21" fill="none" xmlns="http://www.w3.org/2000/svg">
<path d="M8.625 1.75H12.375C12.7202 1.75 13 2.02982 13 2.375V3.625H8V2.375C8 2.02982 8.27982 1.75 8.625 1.75ZM14.25 3.625V2.375C14.25 1.33947 13.4105 0.5 12.375 0.5H8.625C7.58947 0.5 6.75 1.33947 6.75 2.375V3.625H3.63207C3.62782 3.62496 3.62356 3.62496 3.6193 3.625H2.375C2.02982 3.625 1.75 3.90482 1.75 4.25C1.75 4.59518 2.02982 4.875 2.375 4.875H3.048L4.11395 18.1994C4.21789 19.4986 5.30259 20.5 6.60599 20.5H14.394C15.6974 20.5 16.7821 19.4986 16.886 18.1994L17.952 4.875H18.625C18.9702 4.875 19.25 4.59518 19.25 4.25C19.25 3.90482 18.9702 3.625 18.625 3.625H17.3807C17.3764 3.62496 17.3722 3.62496 17.3679 3.625H14.25ZM16.698 4.875L15.64 18.0997C15.5881 18.7493 15.0457 19.25 14.394 19.25H6.60599C5.95429 19.25 5.41194 18.7493 5.35997 18.0997L4.302 4.875H16.698ZM7.3383 6.12608C7.68288 6.10581 7.97865 6.36872 7.99892 6.7133L8.62392 17.3383C8.64419 17.6829 8.38128 17.9787 8.0367 17.9989C7.69212 18.0192 7.39635 17.7563 7.37608 17.4117L6.75108 6.7867C6.73081 6.44212 6.99372 6.14635 7.3383 6.12608ZM13.6617 6.12608C14.0063 6.14635 14.2692 6.44212 14.2489 6.7867L13.6239 17.4117C13.6037 17.7563 13.3079 18.0192 12.9633 17.9989C12.6187 17.9787 12.3558 17.6829 12.3761 17.3383L13.0011 6.7133C13.0213 6.36872 13.3171 6.10581 13.6617 6.12608ZM10.5 6.125C10.8452 6.125 11.125 6.40482 11.125 6.75V17.375C11.125 17.7202 10.8452 18 10.5 18C10.1548 18 9.875 17.7202 9.875 17.375V6.75C9.875 6.40482 10.1548 6.125 10.5 6.125Z" fill="#354344"/>
</svg>
